RobotoAvar2-VANG13-opsz144-wght1000.ufo
<glyph name="numbersign" format="2">
  <advance width="1544"/>
  <unicode hex="0023"/>
  <outline>
    <contour>
      <point x="43.382636177488735" y="-20.0" type="line"/>
      <point x="831.5331548794702" y="1501.0" type="line"/>
      <point x="975.5331548794702" y="1501.0" type="line"/>
      <point x="187.38263617748873" y="-20.0" type="line"/>
    </contour>
    <contour>
      <point x="549.3826361774887" y="-20.0" type="line"/>
      <point x="1337.5331548794702" y="1501.0" type="line"/>
      <point x="1481.5331548794702" y="1501.0" type="line"/>
      <point x="693.3826361774887" y="-20.0" type="line"/>
    </contour>
    <contour>
      <point x="-10.729250785272484" y="404.0" type="line"/>
      <point x="21.130559590055213" y="542.0" type="line"/>
      <point x="1362.1305595900553" y="542.0" type="line"/>
      <point x="1330.2707492147274" y="404.0" type="line"/>
    </contour>
    <contour>
      <point x="163.78523146690372" y="939.0" type="line"/>
      <point x="195.64504184223148" y="1077.0" type="line"/>
      <point x="1535.6450418422314" y="1077.0" type="line"/>
      <point x="1503.7852314669037" y="939.0" type="line"/>
    </contour>
  </outline>
</glyph>
<glyph name="four" format="2">
  <advance width="1156"/>
  <unicode hex="0034"/>
  <outline>
    <contour>
      <point x="556.0" y="0.0" type="line"/>
      <point x="647.8855400679741" y="398.0" type="line"/>
      <point x="659.8906860065034" y="450.0" type="line"/>
      <point x="821.2675516032721" y="1149.0" type="line"/>
      <point x="809.2675516032721" y="1149.0" type="line"/>
      <point x="216.43409556278158" y="500.0" type="line"/>
      <point x="722.4340955627815" y="500.0" type="line"/>
      <point x="799.4340955627815" y="500.0" type="line"/>
      <point x="1055.4340955627815" y="500.0" type="line"/>
      <point x="1018.9569213649427" y="342.0" type="line"/>
      <point x="-39.04307863505741" y="342.0" type="line"/>
      <point x="-9.95368655323648" y="468.0" type="line"/>
      <point x="900.1440862788199" y="1456.0" type="line"/>
      <point x="1072.14408627882" y="1456.0" type="line"/>
      <point x="736.0" y="0.0" type="line"/>
    </contour>
  </outline>
</glyph>
<glyph name="asciicircum" format="2">
  <advance width="1170"/>
  <unicode hex="005E"/>
  <outline>
    <contour>
      <point x="23.22509761040544" y="720.0" type="line"/>
      <point x="668.1440862788199" y="1456.0" type="line"/>
      <point x="838.1440862788199" y="1456.0" type="line"/>
      <point x="1143.2250976104056" y="720.0" type="line"/>
      <point x="943.2250976104056" y="720.0" type="line"/>
      <point x="714.8199665519764" y="1290.0" type="line"/>
      <point x="223.22509761040544" y="720.0" type="line"/>
    </contour>
  </outline>
</glyph>
<glyph name="m" format="2">
  <advance width="1764"/>
  <unicode hex="006D"/>
  <anchor x="714.0" y="0" name="bottom"/>
  <anchor x="956.8733370640923" y="1052" name="top"/>
  <outline>
    <contour>
      <point x="-20.0" y="0.0" type="line"/>
      <point x="222.87333706409242" y="1052.0" type="line"/>
      <point x="390.8733370640924" y="1052.0" type="line"/>
      <point x="363.8540397946076" y="857.0" type="line"/>
      <point x="166.0" y="0.0" type="line"/>
    </contour>
    <contour>
      <point x="968.7595017742574" y="679.0" type="qcurve" smooth="yes"/>
      <point x="812.0" y="0.0" type="line"/>
      <point x="626.0" y="0.0" type="line"/>
      <point x="783.2212381565084" y="681.0" type="line" smooth="yes"/>
      <point x="812.3106302383294" y="807.0"/>
      <point x="734.4752630710158" y="916.0"/>
      <point x="630.4752630710158" y="916.0" type="qcurve" smooth="yes"/>
      <point x="539.4752630710158" y="916.0"/>
      <point x="361.6945529004505" y="800.0"/>
      <point x="203.90226436819432" y="567.0" type="qcurve"/>
      <point x="245.22767057967008" y="746.0" type="line"/>
      <point x="359.16915412902483" y="932.0"/>
      <point x="602.4907008866037" y="1072.0"/>
      <point x="721.4907008866037" y="1072.0" type="qcurve" smooth="yes"/>
      <point x="880.4907008866037" y="1072.0"/>
      <point x="1014.7035582928768" y="891.0"/>
    </contour>
    <contour>
      <point x="891.2276705796701" y="746.0" type="line"/>
      <point x="1005.1691541290247" y="932.0"/>
      <point x="1248.4907008866037" y="1072.0"/>
      <point x="1367.4907008866037" y="1072.0" type="qcurve" smooth="yes"/>
      <point x="1526.4907008866037" y="1072.0"/>
      <point x="1660.7035582928768" y="891.0"/>
      <point x="1614.7595017742574" y="679.0" type="qcurve" smooth="yes"/>
      <point x="1458.0" y="0.0" type="line"/>
      <point x="1272.0" y="0.0" type="line"/>
      <point x="1429.2212381565084" y="681.0" type="line" smooth="yes"/>
      <point x="1458.3106302383294" y="807.0"/>
      <point x="1380.475263071016" y="916.0"/>
      <point x="1276.475263071016" y="916.0" type="qcurve" smooth="yes"/>
      <point x="1185.475263071016" y="916.0"/>
      <point x="1007.6945529004506" y="800.0"/>
      <point x="849.9022643681943" y="567.0" type="qcurve"/>
    </contour>
  </outline>
</glyph>
<glyph name="v" format="2">
  <advance width="942"/>
  <unicode hex="0076"/>
  <anchor x="303.0" y="0" name="bottom"/>
  <anchor x="545.8733370640924" y="1052" name="top"/>
  <outline>
    <contour>
      <point x="74.8733370640924" y="1052.0" type="line"/>
      <point x="255" y="1052" type="line"/>
      <point x="406" y="350" type="line" smooth="yes"/>
      <point x="412" y="320"/>
      <point x="409" y="240"/>
      <point x="409" y="220" type="qcurve"/>
      <point x="415" y="220" type="line"/>
      <point x="426" y="240"/>
      <point x="469" y="311"/>
      <point x="489" y="350" type="qcurve" smooth="yes"/>
      <point x="841" y="1052" type="line"/>
      <point x="1016.8733370640923" y="1052.0" type="line"/>
      <point x="374.0" y="0.0" type="line"/>
      <point x="232.0" y="0.0" type="line"/>
    </contour>
  </outline>
</glyph>
<glyph name="cent" format="2">
  <advance width="1024"/>
  <unicode hex="00A2"/>
  <outline>
    <contour>
      <point x="444.10482989740876" y="282.0" type="qcurve" smooth="yes"/>
      <point x="559.1048298974088" y="282.0"/>
      <point x="716.2694627300951" y="391.0"/>
      <point x="747.5871500337771" y="492.0" type="qcurve"/>
      <point x="923.5871500337771" y="492.0" type="line"/>
      <point x="873.416084777929" y="318.0"/>
      <point x="607.0128648463232" y="130.0"/>
      <point x="409.01286484632317" y="130.0" type="qcurve" smooth="yes"/>
      <point x="177.01286484632323" y="130.0"/>
      <point x="-8.344041638519116" y="410.0"/>
      <point x="51.68168805412728" y="670.0" type="qcurve" smooth="yes"/>
      <point x="61.37815208140094" y="712.0" type="line" smooth="yes"/>
      <point x="121.40388177404736" y="972.0"/>
      <point x="436.04697528920497" y="1252.0"/>
      <point x="668.046975289205" y="1252.0" type="qcurve" smooth="yes"/>
      <point x="868.046975289205" y="1252.0"/>
      <point x="1044.1807324907156" y="1049.0"/>
      <point x="1008.5466443679843" y="860.0" type="qcurve"/>
      <point x="832.5466443679843" y="860.0" type="line"/>
      <point x="851.3273545385496" y="976.0"/>
      <point x="747.9550102381195" y="1100.0"/>
      <point x="632.9550102381195" y="1100.0" type="qcurve" smooth="yes"/>
      <point x="489.9550102381195" y="1100.0"/>
      <point x="290.55050382188125" y="899.0"/>
      <point x="247.3781520814009" y="712.0" type="qcurve" smooth="yes"/>
      <point x="237.68168805412728" y="670.0" type="line" smooth="yes"/>
      <point x="194.509336313647" y="483.0"/>
      <point x="301.1048298974088" y="282.0"/>
    </contour>
    <contour>
      <point x="301.0" y="0.0" type="line"/>
      <point x="346.48103365173597" y="197.0" type="line"/>
      <point x="354.71318832749387" y="211.0" type="line"/>
      <point x="469.4546793168987" y="708.0" type="line"/>
      <point x="609.4546793168987" y="708.0" type="line"/>
      <point x="494.48232013636823" y="210.0" type="line"/>
      <point x="497.17363822511265" y="200.0" type="line"/>
      <point x="451.0" y="0.0" type="line"/>
    </contour>
    <contour>
      <point x="469.4546793168987" y="708.0" type="line"/>
      <point x="578.8862019104156" y="1182.0" type="line"/>
      <point x="576.1948838216713" y="1192.0" type="line"/>
      <point x="624.6772039580395" y="1402.0" type="line"/>
      <point x="774.6772039580395" y="1402.0" type="line"/>
      <point x="726.1948838216713" y="1192.0" type="line"/>
      <point x="718.1935973370389" y="1179.0" type="line"/>
      <point x="609.4546793168987" y="708.0" type="line"/>
    </contour>
  </outline>
</glyph>
<glyph name="threesuperior" format="2">
  <advance width="751"/>
  <unicode hex="00B3"/>
  <outline>
    <contour>
      <point x="107.3987358355181" y="920.0" type="qcurve" smooth="yes"/>
      <point x="108.09134040889478" y="923.0" type="line"/>
      <point x="265.0913404088948" y="923.0" type="line"/>
      <point x="264.3987358355181" y="920.0" type="line" smooth="yes"/>
      <point x="254.00966723486772" y="875.0"/>
      <point x="322.235389487464" y="824.0"/>
      <point x="388.235389487464" y="824.0" type="qcurve" smooth="yes"/>
      <point x="457.235389487464" y="824.0"/>
      <point x="533.2405354259934" y="876.0"/>
      <point x="544.5530767911459" y="925.0" type="qcurve" smooth="yes"/>
      <point x="556.7890909208007" y="978.0"/>
      <point x="492.33250047707884" y="1028.0"/>
      <point x="419.5633686682045" y="1029.0" type="qcurve" smooth="yes"/>
      <point x="335.5633686682045" y="1029.0" type="line"/>
      <point x="363.7292879855231" y="1151.0" type="line"/>
      <point x="447.7292879855231" y="1151.0" type="line" smooth="yes"/>
      <point x="519.7292879855231" y="1151.0"/>
      <point x="596.6579066885547" y="1207.0"/>
      <point x="607.7395798625816" y="1255.0" type="qcurve" smooth="yes"/>
      <point x="617.8977802721065" y="1299.0"/>
      <point x="575.4411898283847" y="1349.0"/>
      <point x="506.4411898283847" y="1349.0" type="qcurve" smooth="yes"/>
      <point x="449.4411898283847" y="1349.0"/>
      <point x="362.8977802721065" y="1299.0"/>
      <point x="352.9704480537073" y="1256.0" type="qcurve" smooth="yes"/>
      <point x="352.04697528920497" y="1252.0" type="line"/>
      <point x="195.04697528920502" y="1252.0" type="line"/>
      <point x="195.9704480537073" y="1256.0" type="line" smooth="yes"/>
      <point x="219.28813535738914" y="1357.0"/>
      <point x="416.3010002037124" y="1487.0"/>
      <point x="535.3010002037124" y="1487.0" type="qcurve" smooth="yes"/>
      <point x="665.3010002037124" y="1487.0"/>
      <point x="804.7511582242726" y="1372.0"/>
      <point x="779.5865253915863" y="1263.0" type="qcurve" smooth="yes"/>
      <point x="767.8122476441824" y="1212.0"/>
      <point x="683.5723740606306" y="1120.0"/>
      <point x="618.4932738558683" y="1098.0" type="qcurve"/>
      <point x="618.2624056647428" y="1097.0" type="line"/>
      <point x="679.7215690777292" y="1073.0"/>
      <point x="725.4816954941774" y="981.0"/>
      <point x="710.7061312621414" y="917.0" type="qcurve" smooth="yes"/>
      <point x="685.3106302383294" y="807.0"/>
      <point x="481.3755791121363" y="686.0"/>
      <point x="351.3755791121363" y="686.0" type="qcurve" smooth="yes"/>
      <point x="218.37557911213628" y="686.0"/>
      <point x="80.15628928270161" y="802.0"/>
    </contour>
  </outline>
</glyph>
<glyph name="doubleprimemod" format="2">
  <advance width="788"/>
  <unicode hex="02BA"/>
  <outline>
    <contour>
      <point x="402.76402307059584" y="1502.0" type="line"/>
      <point x="591.7640230705958" y="1502.0" type="line"/>
      <point x="358.79166389006537" y="1004.0" type="line"/>
      <point x="237.9460048456932" y="1009.0" type="line"/>
    </contour>
    <contour>
      <point x="702.7640230705958" y="1502.0" type="line"/>
      <point x="891.7640230705958" y="1502.0" type="line"/>
      <point x="658.7916638900654" y="1004.0" type="line"/>
      <point x="537.9460048456932" y="1009.0" type="line"/>
    </contour>
  </outline>
</glyph>
<glyph name="gravecomb" format="2">
  <unicode hex="0300"/>
  <anchor x="74.8733370640924" y="1052" name="_top"/>
  <anchor x="201.15823760977543" y="1599" name="top"/>
  <outline>
    <contour>
      <point x="179" y="1215" type="line"/>
      <point x="-120" y="1490" type="line"/>
      <point x="17" y="1603" type="line"/>
      <point x="284" y="1294" type="line"/>
    </contour>
  </outline>
</glyph>
<glyph name="ogonekcomb" format="2">
  <unicode hex="0328"/>
  <anchor x="-80.0" y="0" name="_ogonek"/>
  <anchor x="-247.1967949484944" y="-434" name="bottom"/>
  <outline>
    <contour>
      <point x="-150.8405131058429" y="57.0" type="qcurve"/>
      <point x="-80.0" y="0.0" type="line"/>
      <point x="-151.69646402727363" y="-42.0"/>
      <point x="-250.2450195220811" y="-144.0"/>
      <point x="-263.86624279848934" y="-203.0" type="qcurve" smooth="yes"/>
      <point x="-275.1787841636419" y="-252.0"/>
      <point x="-228.3369845731667" y="-296.0"/>
      <point x="-191.10611638204114" y="-295.0" type="qcurve" smooth="yes"/>
      <point x="-157.87524819091556" y="-294.0"/>
      <point x="-105.71962075065542" y="-276.0"/>
      <point x="-89.87267522165092" y="-268.0" type="qcurve"/>
      <point x="-83.03859453896962" y="-390.0" type="line"/>
      <point x="-109.50161740585307" y="-405.0"/>
      <point x="-188.1967949484944" y="-434.0"/>
      <point x="-247.1967949484944" y="-434.0" type="qcurve" smooth="yes"/>
      <point x="-351.19679494849436" y="-434.0"/>
      <point x="-447.56913924892456" y="-310.0"/>
      <point x="-429.0996839588795" y="-230.0" type="qcurve" smooth="yes"/>
      <point x="-409.93762409545775" y="-147.0"/>
      <point x="-278.46173638225116" y="-2.0"/>
    </contour>
  </outline>
</glyph>
<glyph name="beta" format="2">
  <advance width="1190"/>
  <unicode hex="03B2"/>
  <outline>
    <contour>
      <point x="-116.04116750823425" y="-416.0" type="line"/>
      <point x="205.78909092080073" y="978.0" type="line" smooth="yes"/>
      <point x="264.1987432755682" y="1231.0"/>
      <point x="569.7614501013311" y="1476.0"/>
      <point x="767.7614501013311" y="1476.0" type="qcurve" smooth="yes"/>
      <point x="970.7614501013311" y="1476.0"/>
      <point x="1139.202602729465" y="1270.0"/>
      <point x="1094.1833054599804" y="1075.0" type="qcurve"/>
      <point x="1066.7099907160384" y="956.0"/>
      <point x="885.8463208868136" y="779.0"/>
      <point x="776.0746161086746" y="754.0" type="qcurve"/>
      <point x="779.7685071666835" y="770.0" type="line"/>
      <point x="928.1511433441724" y="750.0"/>
      <point x="1066.2861870303154" y="560.0"/>
      <point x="1034.6572448461131" y="423.0" type="qcurve" smooth="yes"/>
      <point x="990.7922885322562" y="233.0"/>
      <point x="662.1517679863632" y="-21.0"/>
      <point x="473.1517679863632" y="-21.0" type="qcurve" smooth="yes"/>
      <point x="325.15176798636315" y="-21.0"/>
      <point x="160.93762409545775" y="147.0"/>
      <point x="128.64052054589303" y="254.0" type="qcurve"/>
      <point x="183.35628184265147" y="491.0" type="line"/>
      <point x="213.33827105779903" y="309.0"/>
      <point x="350.47460122857433" y="132.0"/>
      <point x="495.47460122857433" y="132.0" type="qcurve" smooth="yes"/>
      <point x="630.4746012285743" y="132.0"/>
      <point x="818.6456664844223" y="306.0"/>
      <point x="845.4263766549876" y="422.0" type="qcurve" smooth="yes"/>
      <point x="872.668823207804" y="540.0"/>
      <point x="753.1447109210108" y="685.0"/>
      <point x="560.1447109210108" y="685.0" type="qcurve" smooth="yes"/>
      <point x="462.14471092101076" y="685.0" type="line"/>
      <point x="494.92799406084066" y="827.0" type="line"/>
      <point x="593.9279940608407" y="827.0" type="line" smooth="yes"/>
      <point x="735.9279940608407" y="827.0"/>
      <point x="894.2495408184195" y="967.0"/>
      <point x="919.414173651106" y="1076.0" type="qcurve" smooth="yes"/>
      <point x="945.5022792482946" y="1189.0"/>
      <point x="866.6694850502456" y="1324.0"/>
      <point x="732.6694850502456" y="1324.0" type="qcurve" smooth="yes"/>
      <point x="599.6694850502456" y="1324.0"/>
      <point x="432.88362894115096" y="1156.0"/>
      <point x="393.4051682586796" y="985.0" type="qcurve" smooth="yes"/>
      <point x="69.95883249176575" y="-416.0" type="line"/>
    </contour>
  </outline>
</glyph>
<glyph name="delta" format="2">
  <advance width="1142"/>
  <unicode hex="03B4"/>
  <outline>
    <contour>
      <point x="386.07395426623316" y="-30.0" type="qcurve" smooth="yes"/>
      <point x="162.0739542662331" y="-30.0"/>
      <point x="-29.669447849994924" y="231.0"/>
      <point x="18.351135904122202" y="439.0" type="qcurve" smooth="yes"/>
      <point x="25.2771816378891" y="469.0" type="line" smooth="yes"/>
      <point x="73.75950177425736" y="679.0"/>
      <point x="396.16915412902483" y="932.0"/>
      <point x="616.2482543337871" y="954.0" type="qcurve"/>
      <point x="741.1640081904956" y="880.0" type="line"/>
      <point x="526.8553262792399" y="870.0"/>
      <point x="261.60516081862954" y="674.0"/>
      <point x="219.58715003377705" y="492.0" type="qcurve" smooth="yes"/>
      <point x="214.96978621126578" y="472.0" type="line" smooth="yes"/>
      <point x="177.56913924892456" y="310.0"/>
      <point x="276.1659193173187" y="122.0"/>
      <point x="421.16591931731875" y="122.0" type="qcurve" smooth="yes"/>
      <point x="565.1659193173188" y="122.0"/>
      <point x="773.4160847779291" y="318.0"/>
      <point x="811.2784681225214" y="482.0" type="qcurve" smooth="yes"/>
      <point x="815.6649637539072" y="501.0" type="line" smooth="yes"/>
      <point x="842.9074103067236" y="619.0"/>
      <point x="765.9228481223114" y="775.0"/>
      <point x="612.2379624567286" y="850.0" type="qcurve" smooth="yes"/>
      <point x="465.86047221776926" y="922.0"/>
      <point x="347.182018975348" y="1062.0"/>
      <point x="371.19231085240654" y="1166.0" type="qcurve" smooth="yes"/>
      <point x="403.28298941885987" y="1305.0"/>
      <point x="653.7614501013311" y="1476.0"/>
      <point x="845.7614501013311" y="1476.0" type="qcurve" smooth="yes"/>
      <point x="945.7614501013311" y="1476.0"/>
      <point x="1081.9884588385598" y="1438.0"/>
      <point x="1135.8315449136674" y="1407.0" type="qcurve"/>
      <point x="1069.2778434803306" y="1253.0" type="line"/>
      <point x="992.7434393164785" y="1294.0"/>
      <point x="866.6694850502456" y="1324.0"/>
      <point x="810.6694850502456" y="1324.0" type="qcurve" smooth="yes"/>
      <point x="702.6694850502456" y="1324.0"/>
      <point x="570.8913478489449" y="1234.0"/>
      <point x="556.3466518080344" y="1171.0" type="qcurve" smooth="yes"/>
      <point x="543.6489012961284" y="1116.0"/>
      <point x="597.2585462108458" y="1058.0"/>
      <point x="729.0199591119263" y="979.0" type="qcurve" smooth="yes"/>
      <point x="934.623171603482" y="856.0"/>
      <point x="1037.6791150848626" y="644.0"/>
      <point x="1003.2797546071538" y="495.0" type="qcurve" smooth="yes"/>
      <point x="996.5845770645124" y="466.0" type="line" smooth="yes"/>
      <point x="941.8688157677539" y="229.0"/>
      <point x="598.0739542662332" y="-30.0"/>
    </contour>
  </outline>
</glyph>
<glyph name="theta" format="2">
  <advance width="1143"/>
  <unicode hex="03B8"/>
  <outline>
    <contour>
      <point x="398.07395426623316" y="-30.0" type="qcurve" smooth="yes"/>
      <point x="179.0739542662331" y="-30.0"/>
      <point x="-7.433433720340076" y="284.0"/>
      <point x="77.98779699611828" y="654.0" type="qcurve"/>
      <point x="112.15628928270161" y="802.0" type="line"/>
      <point x="195.26883808790433" y="1162.0"/>
      <point x="524.7614501013311" y="1476.0"/>
      <point x="743.7614501013311" y="1476.0" type="qcurve" smooth="yes"/>
      <point x="964.7614501013311" y="1476.0"/>
      <point x="1148.2688380879044" y="1162.0"/>
      <point x="1065.1562892827017" y="802.0" type="qcurve"/>
      <point x="1030.9877969961183" y="654.0" type="line"/>
      <point x="945.56656627966" y="284.0"/>
      <point x="619.0739542662332" y="-30.0"/>
    </contour>
    <contour>
      <point x="434.16591931731875" y="122.0" type="qcurve" smooth="yes"/>
      <point x="569.1659193173188" y="122.0"/>
      <point x="770.2656032761982" y="352.0"/>
      <point x="830.7530693510957" y="614.0" type="qcurve"/>
      <point x="882.0058077809708" y="836.0" type="line" smooth="yes"/>
      <point x="942.4932738558682" y="1098.0"/>
      <point x="843.6694850502456" y="1324.0"/>
      <point x="709.6694850502456" y="1324.0" type="qcurve" smooth="yes"/>
      <point x="577.6694850502456" y="1324.0"/>
      <point x="371.4932738558683" y="1098.0"/>
      <point x="311.00580778097077" y="836.0" type="qcurve" smooth="yes"/>
      <point x="259.75306935109575" y="614.0" type="line" smooth="yes"/>
      <point x="199.26560327619825" y="352.0"/>
      <point x="302.1659193173187" y="122.0"/>
    </contour>
    <contour>
      <point x="177.37429262750402" y="673.0" type="line"/>
      <point x="210.15757576733392" y="815.0" type="line"/>
      <point x="973.157575767334" y="815.0" type="line"/>
      <point x="940.374292627504" y="673.0" type="line"/>
    </contour>
  </outline>
</glyph>
<glyph name="lambda" format="2">
  <advance width="961"/>
  <unicode hex="03BB"/>
  <outline>
    <contour>
      <point x="-168.0" y="0.0" type="line"/>
      <point x="476.9498642995901" y="1048.0" type="line"/>
      <point x="469.26369214937506" y="1110.0" type="line" smooth="yes"/>
      <point x="455.35179774656376" y="1223.0"/>
      <point x="411.8225395212411" y="1316.0"/>
      <point x="333.8225395212411" y="1316.0" type="qcurve" smooth="yes"/>
      <point x="307.8225395212411" y="1316.0"/>
      <point x="239.20646218336213" y="1309.0"/>
      <point x="211.3595166543576" y="1301.0" type="qcurve"/>
      <point x="247.14408627881988" y="1456.0" type="line"/>
      <point x="277.4527681900755" y="1466.0"/>
      <point x="348.7614501013311" y="1476.0"/>
      <point x="383.7614501013311" y="1476.0" type="qcurve" smooth="yes"/>
      <point x="507.7614501013311" y="1476.0"/>
      <point x="607.9807399307658" y="1360.0"/>
      <point x="623.046975289205" y="1252.0" type="qcurve" smooth="yes"/>
      <point x="793.0" y="0.0" type="line"/>
      <point x="593.0" y="0.0" type="line"/>
      <point x="518.0630377469837" y="637.0" type="line" smooth="yes"/>
      <point x="510.99165645001517" y="693.0"/>
      <point x="509.7672206820513" y="757.0"/>
      <point x="509.54149842945503" y="808.0" type="qcurve"/>
      <point x="503.54149842945503" y="808.0" type="line"/>
      <point x="481.22895706430245" y="759.0"/>
      <point x="440.7595017742574" y="679.0"/>
      <point x="415.0630377469837" y="637.0" type="qcurve" smooth="yes"/>
      <point x="32.0" y="0.0" type="line"/>
    </contour>
  </outline>
</glyph>
<glyph name="icyr" format="2">
  <advance width="1158"/>
  <unicode hex="0438"/>
  <anchor x="662.8733370640924" y="1052" name="top"/>
  <outline>
    <contour>
      <point x="-20.0" y="0.0" type="line"/>
      <point x="222.87333706409242" y="1052.0" type="line"/>
      <point x="405.8733370640924" y="1052.0" type="line"/>
      <point x="256.03988102360194" y="403.0" type="line" smooth="yes"/>
      <point x="249.11383528983504" y="373.0"/>
      <point x="230.79872095541782" y="298.0"/>
      <point x="222.87267522165092" y="268.0" type="qcurve"/>
      <point x="232.87267522165092" y="268.0" type="line"/>
      <point x="252.64437999978998" y="293.0"/>
      <point x="301.26560327619825" y="352.0"/>
      <point x="327.42251720109067" y="383.0" type="qcurve" smooth="yes"/>
      <point x="898.8733370640923" y="1052.0" type="line"/>
      <point x="1084.8733370640923" y="1052.0" type="line"/>
      <point x="842.0" y="0.0" type="line"/>
      <point x="659.0" y="0.0" type="line"/>
      <point x="808.6025878493649" y="648.0" type="line" smooth="yes"/>
      <point x="815.5286335831318" y="678.0"/>
      <point x="836.9980888731768" y="758.0"/>
      <point x="845.9241346069438" y="788.0" type="qcurve"/>
      <point x="830.9241346069438" y="788.0" type="line"/>
      <point x="813.1524298288047" y="763.0"/>
      <point x="763.3768655967687" y="699.0"/>
      <point x="737.2199516718762" y="668.0" type="qcurve" smooth="yes"/>
      <point x="166.0" y="0.0" type="line"/>
    </contour>
  </outline>
</glyph>
<glyph name="tse" format="2">
  <advance width="1155"/>
  <unicode hex="0446"/>
  <outline>
    <contour>
      <point x="736.665588396098" y="-270.0" type="line"/>
      <point x="799.0" y="0.0" type="line"/>
      <point x="-20.0" y="0.0" type="line"/>
      <point x="222.87333706409242" y="1052.0" type="line"/>
      <point x="408.8733370640924" y="1052.0" type="line"/>
      <point x="199.47588771320665" y="145.0" type="line"/>
      <point x="659.4758877132067" y="145.0" type="line"/>
      <point x="868.8733370640923" y="1052.0" type="line"/>
      <point x="1054.8733370640923" y="1052.0" type="line"/>
      <point x="845.4758877132067" y="145.0" type="line"/>
      <point x="1000.4758877132067" y="145.0" type="line"/>
      <point x="904.665588396098" y="-270.0" type="line"/>
    </contour>
  </outline>
</glyph>
<glyph name="gheup" format="2">
  <advance width="864"/>
  <unicode hex="0491"/>
  <outline>
    <contour>
      <point x="222.87333706409242" y="1052.0" type="line"/>
      <point x="740.8733370640924" y="1052.0" type="line"/>
      <point x="803.2077486679945" y="1322.0" type="line"/>
      <point x="971.2077486679946" y="1322.0" type="line"/>
      <point x="875.3974493508858" y="907.0" type="line"/>
      <point x="375.3974493508857" y="907.0" type="line"/>
      <point x="166.0" y="0.0" type="line"/>
      <point x="-20.0" y="0.0" type="line"/>
    </contour>
  </outline>
</glyph>
<glyph name="lira" format="2">
  <advance width="1024"/>
  <unicode hex="20A4"/>
  <outline>
    <contour>
      <point x="860.0" y="0.0" type="line"/>
      <point x="-132.0" y="0.0" type="line"/>
      <point x="-95.0610894199099" y="160.0" type="line"/>
      <point x="-39.061089419909905" y="160.0" type="line" smooth="yes"/>
      <point x="52.938910580090095" y="160.0"/>
      <point x="173.80129392468245" y="324.0"/>
      <point x="192.815445255638" y="467.0" type="qcurve" smooth="yes"/>
      <point x="269.87205057946005" y="1039.0" type="line" smooth="yes"/>
      <point x="295.5061387021915" y="1228.0"/>
      <point x="552.7614501013311" y="1476.0"/>
      <point x="753.7614501013311" y="1476.0" type="qcurve" smooth="yes"/>
      <point x="943.7614501013311" y="1476.0"/>
      <point x="1109.202602729465" y="1270.0"/>
      <point x="1070.6476148114962" y="1103.0" type="qcurve" smooth="yes"/>
      <point x="1066.953723753487" y="1087.0" type="line"/>
      <point x="874.9537237534871" y="1087.0" type="line"/>
      <point x="878.6476148114962" y="1103.0" type="line" smooth="yes"/>
      <point x="905.1974567909358" y="1218.0"/>
      <point x="811.5151440946178" y="1319.0"/>
      <point x="719.5151440946178" y="1319.0" type="qcurve" smooth="yes"/>
      <point x="617.5151440946178" y="1319.0"/>
      <point x="468.2688380879043" y="1162.0"/>
      <point x="451.87205057946005" y="1039.0" type="qcurve" smooth="yes"/>
      <point x="380.28104109178605" y="508.0" type="line" smooth="yes"/>
      <point x="361.8829670987095" y="372.0"/>
      <point x="271.78971556299155" y="207.0"/>
      <point x="192.3241197268435" y="166.0" type="qcurve"/>
      <point x="898.3241197268435" y="166.0" type="line"/>
    </contour>
    <contour>
      <point x="736.6585313307455" y="436.0" type="line"/>
      <point x="-25.341468669254482" y="436.0" type="line"/>
      <point x="9.28875999957998" y="586.0" type="line"/>
      <point x="771.28875999958" y="586.0" type="line"/>
    </contour>
    <contour>
      <point x="811.6906934465535" y="761.0" type="line"/>
      <point x="49.690693446553524" y="761.0" type="line"/>
      <point x="84.32092211538799" y="911.0" type="line"/>
      <point x="846.3209221153879" y="911.0" type="line"/>
    </contour>
  </outline>
</glyph>
<glyph name="Yu-dash.case" format="2">
  <advance width="557"/>
  <anchor x="5.15114334417234" y="750" name="_yu_dash"/>
  <anchor x="562.1511433441724" y="750" name="yu_dash"/>
  <outline>
    <contour>
      <point x="-12.85657556362159" y="672.0" type="line"/>
      <point x="23.620598634217373" y="830.0" type="line"/>
      <point x="580.6205986342173" y="830.0" type="line"/>
      <point x="544.1434244363784" y="672.0" type="line"/>
    </contour>
  </outline>
</glyph>
<glyph name="brevebelowcomb.case" format="2">
  <anchor x="-168.0" y="0" name="_bottom"/>
  <anchor x="-276.0463134467635" y="-468" name="bottom"/>
  <outline>
    <contour>
      <point x="84.52539877142567" y="-132.0" type="qcurve"/>
      <point x="168.59549358376182" y="-201.0" type="line"/>
      <point x="94.2765197954476" y="-315.0"/>
      <point x="-148.04631344676352" y="-468.0"/>
      <point x="-276.0463134467635" y="-468.0" type="qcurve"/>
      <point x="-404.0463134467635" y="-468.0"/>
      <point x="-575.7234802045524" y="-315.0"/>
      <point x="-597.4045064162382" y="-201.0" type="qcurve"/>
      <point x="-481.47460122857433" y="-132.0" type="line"/>
      <point x="-453.0192972694848" y="-195.0"/>
      <point x="-332.02958914654334" y="-299.0"/>
      <point x="-237.02958914654337" y="-299.0" type="qcurve"/>
      <point x="-142.02958914654337" y="-299.0"/>
      <point x="26.98070273051519" y="-195.0"/>
    </contour>
  </outline>
</glyph>
<glyph name="breveinvertedcomb-stack.case" format="2">
  <anchor x="168.14408627881988" y="1456" name="_top"/>
  <anchor x="272.0347722853233" y="1906" name="top"/>
  <outline>
    <contour>
      <point x="-92.1504443014802" y="1589.0" type="qcurve"/>
      <point x="-168.98967092269078" y="1659.0" type="line"/>
      <point x="-109.44240191251566" y="1748.0"/>
      <point x="110" y="1906"/>
      <point x="254" y="1906" type="qcurve" smooth="yes"/>
      <point x="382" y="1906"/>
      <point x="574.7897527632422" y="1762.0"/>
      <point x="598.7794608861836" y="1658.0" type="qcurve"/>
      <point x="482.8495556985198" y="1589.0" type="line"/>
      <point x="452.0855698281746" y="1642.0"/>
      <point x="329.0180479851031" y="1737.0"/>
      <point x="234.01804798510312" y="1737.0" type="qcurve" smooth="yes"/>
      <point x="132.01804798510312" y="1737.0"/>
      <point x="-35.76008921619757" y="1647.0"/>
    </contour>
  </outline>
</glyph>
<glyph name="caroncomb-stack" format="2">
  <anchor x="74.8733370640924" y="1052" name="_top"/>
  <anchor x="184.76659603986042" y="1528" name="top"/>
  <outline>
    <contour>
      <point x="58.504852217559176" y="1215.0" type="line"/>
      <point x="-122.54337235602753" y="1505.0" type="line"/>
      <point x="31.456627643972467" y="1505.0" type="line"/>
      <point x="150.05855365089593" y="1369.0" type="line"/>
      <point x="330.45662764397247" y="1505.0" type="line"/>
      <point x="482.4566276439725" y="1505.0" type="line"/>
      <point x="170.50485221755918" y="1215.0" type="line"/>
    </contour>
  </outline>
</glyph>
<glyph name="caroncomb.alt" format="2">
  <anchor x="74.8733370640924" y="1052" name="_topright"/>
  <outline>
    <contour>
      <point x="84.10806470911493" y="1092.0" type="line"/>
      <point x="275.915791056959" y="1481.0" type="line"/>
      <point x="453.4489087361785" y="1427.0" type="line"/>
      <point x="204.0276780197202" y="1057.0" type="line"/>
    </contour>
  </outline>
</glyph>
<glyph name="circumflexcomb-stack" format="2">
  <anchor x="169.29842723444773" y="1461" name="top"/>
  <anchor x="75.10420525521795" y="1053" name="_top"/>
  <anchor x="495.6591931731871" y="1220" name="topright"/>
  <outline>
    <contour>
      <point x="247.6109685996003" y="1510.0" type="line"/>
      <point x="445.6591931731871" y="1220.0" type="line"/>
      <point x="280.659193173187" y="1220.0" type="line"/>
      <point x="145.28813535738914" y="1357.0" type="line"/>
      <point x="-53.34080682681298" y="1220.0" type="line"/>
      <point x="-220.34080682681298" y="1220.0" type="line"/>
      <point x="103.61096859960031" y="1510.0" type="line"/>
    </contour>
  </outline>
</glyph>
<glyph name="circumflexcomb.case" format="2">
  <anchor x="168.14408627881988" y="1456" name="_top"/>
  <anchor x="287.96467747298715" y="1975" name="top"/>
  <outline>
    <contour>
      <point x="355.9646774729872" y="1975.0" type="line"/>
      <point x="542.4694924902957" y="1635.0" type="line"/>
      <point x="375.4694924902957" y="1635.0" type="line"/>
      <point x="251.48750327514819" y="1817.0" type="line"/>
      <point x="49.46949249029569" y="1635.0" type="line"/>
      <point x="-123.53050750970431" y="1635.0" type="line"/>
      <point x="211.96467747298715" y="1975.0" type="line"/>
    </contour>
  </outline>
</glyph>
<glyph name="cy-descendercomb" format="2">
  <anchor x="-168.0" y="0" name="_cy-descender"/>
  <outline>
    <contour>
      <point x="-127.33441160390204" y="-270.0" type="line"/>
      <point x="-65.0" y="0.0" type="line"/>
      <point x="-168.0" y="0.0" type="line"/>
      <point x="-134.52411228679335" y="145.0" type="line"/>
      <point x="136.47588771320665" y="145.0" type="line"/>
      <point x="40.665588396097974" y="-270.0" type="line"/>
    </contour>
  </outline>
</glyph>
<glyph name="dieresiscomb-stack" format="2">
  <anchor x="74.8733370640924" y="1052" name="_top"/>
  <anchor x="160.98717235392746" y="1425" name="top"/>
  <outline>
    <contour>
      <point x="-183" y="1319" type="qcurve" smooth="yes"/>
      <point x="-183" y="1364"/>
      <point x="-127" y="1426"/>
      <point x="-74" y="1426" type="qcurve" smooth="yes"/>
      <point x="-20" y="1426"/>
      <point x="36" y="1364"/>
      <point x="36" y="1319" type="qcurve" smooth="yes"/>
      <point x="36" y="1276"/>
      <point x="-20" y="1215"/>
      <point x="-74" y="1215" type="qcurve" smooth="yes"/>
      <point x="-127" y="1215"/>
      <point x="-183" y="1276"/>
    </contour>
    <contour>
      <point x="188" y="1319" type="qcurve" smooth="yes"/>
      <point x="188" y="1364"/>
      <point x="243" y="1426"/>
      <point x="297" y="1426" type="qcurve" smooth="yes"/>
      <point x="350" y="1426"/>
      <point x="407" y="1364"/>
      <point x="407" y="1319" type="qcurve" smooth="yes"/>
      <point x="407" y="1276"/>
      <point x="350" y="1215"/>
      <point x="297" y="1215" type="qcurve" smooth="yes"/>
      <point x="243" y="1215"/>
      <point x="188" y="1276"/>
    </contour>
  </outline>
</glyph>
<glyph name="gravecombstack.case" format="2">
  <anchor x="186.61354156886495" y="1536" name="_top"/>
  <anchor x="275.0360587699556" y="1919" name="top"/>
  <outline>
    <contour>
      <point x="323" y="1570" type="line"/>
      <point x="-60" y="1756" type="line"/>
      <point x="47" y="1919" type="line"/>
      <point x="401" y="1686" type="line"/>
    </contour>
  </outline>
</glyph>
<glyph name="tildecomb-stack.case" format="2">
  <anchor x="168.14408627881988" y="1456" name="_top"/>
  <anchor x="261.645703684673" y="1861" name="top"/>
  <outline>
    <contour>
      <point x="-124.06105221965925" y="1715.0" type="line"/>
      <point x="-67.43854245861871" y="1787.0"/>
      <point x="73.64570368467298" y="1861.0"/>
      <point x="140.64570368467298" y="1861.0" type="qcurve" smooth="yes"/>
      <point x="175.64570368467298" y="1861.0"/>
      <point x="242.56660347991055" y="1839.0"/>
      <point x="272.5640305106459" y="1813.0" type="qcurve" smooth="yes"/>
      <point x="297.48493030588355" y="1791.0"/>
      <point x="355.4045436164888" y="1756.0"/>
      <point x="387.4045436164888" y="1756.0" type="qcurve" smooth="yes"/>
      <point x="427.4045436164888" y="1756.0"/>
      <point x="483.63927126151134" y="1796.0"/>
      <point x="513.6431307154082" y="1835.0" type="qcurve"/>
      <point x="586.6341253229821" y="1744.0" type="line"/>
      <point x="537.5498791796904" y="1670.0"/>
      <point x="406.4656330363987" y="1596.0"/>
      <point x="341.46563303639874" y="1596.0" type="qcurve" smooth="yes"/>
      <point x="292.46563303639874" y="1596.0"/>
      <point x="218.54601972579343" y="1631.0"/>
      <point x="193.1633835483047" y="1651.0" type="qcurve" smooth="yes"/>
      <point x="167.01161556194154" y="1672.0"/>
      <point x="112.55373863358739" y="1709.0"/>
      <point x="88.55373863358739" y="1709.0" type="qcurve" smooth="yes"/>
      <point x="52.553738633587386" y="1709.0"/>
      <point x="-21.144011878318622" y="1654.0"/>
      <point x="-47.07005761208552" y="1624.0" type="qcurve"/>
    </contour>
  </outline>
</glyph>
